<svg width="30" height="30" viewBox="0 0 30 30" fill="none" xmlns="http://www.w3.org/2000/svg">
<path d="M9.03122 21L5.33522 15.08H6.64722L10.3432 21H9.03122ZM5.35922 21L7.34322 17.768L7.95122 18.768L6.67122 21H5.35922ZM8.35122 18.384L7.75122 17.384L9.06322 15.08H10.3672L8.35122 18.384ZM12.4159 21C12.1119 21 11.8532 20.9547 11.6399 20.864C11.4319 20.768 11.2746 20.6187 11.1679 20.416C11.0666 20.208 11.0159 19.936 11.0159 19.6V15.08H12.1999V19.408C12.1999 19.536 12.2212 19.64 12.2639 19.72C12.3119 19.8 12.3759 19.856 12.4559 19.888C12.5359 19.9147 12.6266 19.928 12.7279 19.928H14.5999V21H12.4159ZM17.0812 21.048C16.9265 21.048 16.7665 21.0427 16.6012 21.032C16.4412 21.0267 16.2758 21.016 16.1052 21C15.9398 20.9787 15.7825 20.9573 15.6332 20.936C15.4838 20.9093 15.3478 20.88 15.2252 20.848V19.912C15.3852 19.928 15.5665 19.9413 15.7692 19.952C15.9718 19.9627 16.1825 19.9707 16.4012 19.976C16.6198 19.9813 16.8278 19.984 17.0252 19.984C17.2278 19.984 17.4012 19.968 17.5452 19.936C17.6945 19.8987 17.8092 19.8373 17.8892 19.752C17.9692 19.6613 18.0092 19.5387 18.0092 19.384V19.168C18.0092 18.992 17.9558 18.8587 17.8492 18.768C17.7478 18.672 17.6012 18.624 17.4092 18.624H16.9052C16.3398 18.624 15.9052 18.5013 15.6012 18.256C15.3025 18.0053 15.1532 17.5813 15.1532 16.984V16.696C15.1532 16.12 15.3185 15.6987 15.6492 15.432C15.9798 15.1653 16.4518 15.032 17.0652 15.032C17.2838 15.032 17.4998 15.0427 17.7132 15.064C17.9318 15.0853 18.1398 15.112 18.3372 15.144C18.5398 15.1707 18.7132 15.2 18.8572 15.232V16.168C18.6118 16.152 18.3372 16.136 18.0332 16.12C17.7345 16.104 17.4572 16.096 17.2012 16.096C17.0198 16.096 16.8572 16.1147 16.7132 16.152C16.5745 16.184 16.4678 16.248 16.3932 16.344C16.3185 16.44 16.2812 16.576 16.2812 16.752V16.912C16.2812 17.12 16.3398 17.2693 16.4572 17.36C16.5745 17.4507 16.7478 17.496 16.9772 17.496H17.5612C17.9185 17.496 18.2118 17.5627 18.4412 17.696C18.6758 17.824 18.8492 18.0027 18.9612 18.232C19.0785 18.4613 19.1372 18.7227 19.1372 19.016V19.352C19.1372 19.816 19.0492 20.1707 18.8732 20.416C18.7025 20.6613 18.4625 20.8293 18.1532 20.92C17.8492 21.0053 17.4918 21.048 17.0812 21.048ZM23.3281 21L19.6321 15.08H20.9441L24.6401 21H23.3281ZM19.6561 21L21.6401 17.768L22.2481 18.768L20.9681 21H19.6561ZM22.6481 18.384L22.0481 17.384L23.3601 15.08H24.6641L22.6481 18.384Z" fill="#292D32"/>
<path d="M24 10.5C24 7.8 22.5 6 19 6H11C7.5 6 6 7.8 6 10.5" stroke="#292D32" stroke-width="1.5" stroke-miterlimit="10" stroke-linecap="round" stroke-linejoin="round"/>
<path d="M24 24L6 24" stroke="#292D32" stroke-width="1.5" stroke-miterlimit="10" stroke-linecap="round" stroke-linejoin="round"/>
</svg>
