<svg width="30" height="30" viewBox="0 0 30 30" fill="none" xmlns="http://www.w3.org/2000/svg">
<path d="M16.9827 13.016C16.7695 12.8015 16.5331 12.6114 16.2778 12.4491C15.6018 12.0162 14.816 11.7862 14.0132 11.7862C12.8991 11.7841 11.8302 12.2268 11.0438 13.016L7.22846 16.8343C6.44335 17.6209 6.00208 18.6867 6.00137 19.798C5.9999 22.1172 7.87873 23.9985 10.1979 24C11.3104 24.0038 12.3782 23.5632 13.1644 22.7762L16.3138 19.6267C16.3711 19.57 16.403 19.4926 16.4026 19.412C16.4016 19.2464 16.2665 19.1129 16.1009 19.1138H15.9809C15.3229 19.1162 14.6708 18.9898 14.0613 18.7419C13.949 18.6957 13.8199 18.7218 13.7343 18.8079L11.4697 21.0755C10.7665 21.7787 9.62639 21.7787 8.92318 21.0755C8.21997 20.3723 8.21997 19.2321 8.92318 18.5289L12.7535 14.7016C13.4561 13.9999 14.5944 13.9999 15.2971 14.7016C15.7706 15.1473 16.5092 15.1473 16.9827 14.7016C17.1865 14.4977 17.31 14.2273 17.3307 13.9398C17.3526 13.5962 17.2259 13.2597 16.9827 13.016Z" fill="#A5A5A5"/>
<path d="M22.7686 7.23001C21.1287 5.59002 18.4697 5.59002 16.8297 7.23001L13.6833 10.3734C13.5969 10.4603 13.5719 10.5908 13.6203 10.7034C13.668 10.8162 13.7797 10.8887 13.9022 10.8863H14.0132C14.6704 10.8851 15.3215 11.0125 15.9298 11.2613C16.0421 11.3075 16.1712 11.2814 16.2568 11.1953L18.5154 8.9397C19.2186 8.23649 20.3587 8.23649 21.0619 8.9397C21.7651 9.64291 21.7651 10.783 21.0619 11.4862L18.2484 14.2967L18.2244 14.3237L17.2406 15.3016C16.5379 16.0033 15.3997 16.0033 14.697 15.3016C14.2235 14.8559 13.4848 14.8559 13.0113 15.3016C12.8063 15.507 12.6827 15.7798 12.6634 16.0694C12.6415 16.413 12.7682 16.7495 13.0113 16.9933C13.3585 17.3419 13.7647 17.6262 14.2111 17.8331C14.2741 17.8631 14.3371 17.8871 14.4001 17.9141C14.4631 17.9411 14.529 17.9621 14.592 17.9861C14.655 18.0101 14.721 18.0311 14.784 18.0491L14.961 18.097C15.0809 18.127 15.2009 18.151 15.3239 18.172C15.472 18.194 15.6212 18.208 15.7708 18.214H15.9808H15.9988L16.1787 18.193C16.2447 18.19 16.3137 18.175 16.3917 18.175H16.4937L16.7006 18.145L16.7966 18.127L16.9706 18.0911H17.0036C17.7404 17.906 18.4131 17.5245 18.9502 16.9872L22.7685 13.1689C24.4086 11.5289 24.4086 8.87 22.7686 7.23001Z" fill="#A5A5A5"/>
</svg>
