<svg width="30" height="30" viewBox="0 0 30 30" fill="none" xmlns="http://www.w3.org/2000/svg">
<path d="M12.5 23.3333H10.8333C7.5 23.3333 6.66666 22.5 6.66666 19.1667V10.8333C6.66666 7.50001 7.5 6.66667 10.8333 6.66667H12.0833C13.3333 6.66667 13.6084 7.03335 14.0834 7.66668L15.3334 9.33335C15.65 9.75002 15.8333 10 16.6667 10H19.1667C22.5 10 23.3333 10.8333 23.3333 14.1667V15.8333" stroke="#fff" stroke-width="1.5" stroke-miterlimit="10" stroke-linecap="round" stroke-linejoin="round"/>
<path d="M16.4667 20.2667C14.5083 20.4084 14.5083 23.2417 16.4667 23.3833H21.1C21.6583 23.3833 22.2083 23.175 22.6167 22.8C23.9917 21.6 23.2583 19.2 21.45 18.975C20.8 15.0667 15.15 16.55 16.4834 20.275" stroke="#fff" stroke-width="1.5" stroke-miterlimit="10" stroke-linecap="round" stroke-linejoin="round"/>
</svg>
