<svg width="120" height="120" viewBox="0 0 120 120" fill="none" xmlns="http://www.w3.org/2000/svg">
<path d="M39.3778 30.1875C38.8771 30.3984 38.3526 30.8672 38.0904 31.3476C37.9116 31.664 37.8877 32.625 37.852 41.5546L37.8162 51.4217L36.7195 51.4685C35.3845 51.5271 34.5858 51.8435 33.9183 52.5466C32.9527 53.5779 33.0004 53.0037 33.0004 63.6325C33.0004 73.0191 33.0004 73.066 33.2507 73.605C33.8944 74.9644 34.9196 75.5855 36.7195 75.6792L37.8162 75.7378L37.852 82.019C37.8877 88.9096 37.8639 88.6049 38.6268 89.3197C39.4016 90.0463 37.8997 89.9994 60 89.9994C82.1003 89.9994 80.5984 90.0463 81.3732 89.3197C82.1361 88.6049 82.1123 88.9096 82.148 82.019L82.1838 75.7378L83.2805 75.6792C85.0804 75.5855 86.1056 74.9644 86.7493 73.605C86.9996 73.066 86.9996 73.0191 86.9996 63.6325C86.9996 53.0037 87.0473 53.5779 86.0817 52.5466C85.4142 51.8435 84.6155 51.5271 83.2805 51.4685L82.1719 51.4217L82.1599 47.8826C82.148 45.9491 82.1123 44.2264 82.0646 44.0624C81.9692 43.7108 70.2157 30.4687 69.7509 30.1875C69.4648 30.0117 68.1058 30 54.612 30C41.6426 30.0117 39.7473 30.0352 39.3778 30.1875ZM67.9866 38.5546V44.7655L68.3323 45.1405L68.678 45.5272L74.2329 45.5623L79.7878 45.5975V48.5154V51.4451H60H40.2122V41.8944V32.3437H54.0994H67.9866V38.5546ZM58.0331 56.4724C60.4887 57.3161 61.9073 59.5544 61.9073 62.5778C61.9073 66.1403 59.9523 68.5543 56.6981 69.0348C53.4319 69.5152 50.7736 67.8043 49.9154 64.6871C49.6412 63.6793 49.6412 61.7341 49.9154 60.7145C50.5591 58.3356 52.2041 56.7654 54.5762 56.2497C55.3511 56.074 57.2226 56.2029 58.0331 56.4724ZM72.6356 56.4372C72.9932 56.5427 73.315 56.6482 73.3389 56.6599C73.3627 56.6833 73.2554 57.2107 73.1005 57.8317C72.874 58.7341 72.7905 58.9333 72.6356 58.8864C71.5031 58.4528 69.8939 58.3942 68.8449 58.7458C67.2476 59.2849 66.3178 60.7262 66.3178 62.6364C66.3178 64.5934 67.2953 66.0582 68.9283 66.527C69.7747 66.7613 71.3124 66.7613 72.1349 66.5153C72.6117 66.3863 72.7786 66.3746 72.8144 66.4801C72.9813 66.984 73.2197 68.4957 73.1482 68.566C72.7309 68.9293 70.2873 69.1988 68.8807 69.023C65.2688 68.5777 63.3019 66.3512 63.3139 62.695C63.3139 60.6677 63.9337 59.1794 65.2926 57.9138C66.2224 57.0466 67.5575 56.4255 68.9403 56.238C69.8939 56.1091 71.8846 56.2146 72.6356 56.4372ZM43.7287 56.531C45.8982 57.0583 47.3167 58.2419 47.9724 60.0583C48.318 61.0427 48.4015 62.8239 48.1512 63.984C47.6147 66.4684 46.1247 67.9684 43.4545 68.6949C42.6559 68.9176 42.2148 68.9527 39.9738 68.9527C38.5672 68.9644 37.3156 68.9293 37.2083 68.8824C37.0056 68.8004 36.9937 68.3902 36.9937 62.6481V56.5075L37.9831 56.3904C39.3301 56.2263 42.8347 56.3083 43.7287 56.531ZM78.3931 57.738C78.7626 58.4997 79.2275 59.4841 79.4302 59.9411L79.7997 60.7614L80.5745 59.0036C81.0037 58.031 81.4447 57.0466 81.552 56.8122L81.7547 56.3669H83.3997H85.0566L84.6394 57.0935C84.4129 57.5036 83.6023 58.8747 82.8513 60.1638C81.5997 62.2848 81.4805 62.5192 81.6355 62.7419C81.7189 62.8708 82.4699 64.1481 83.3043 65.566C84.1387 66.984 84.9255 68.3199 85.0566 68.5191L85.295 68.9059H83.6142H81.9335L80.7891 66.6442L79.6328 64.3942L79.2871 65.1559C79.1083 65.5778 78.6434 66.5856 78.262 67.4059L77.5825 68.8941L75.9494 68.9059C75.0435 68.9059 74.3044 68.8824 74.3044 68.859C74.3044 68.8355 75.115 67.4293 76.0925 65.7418C77.0819 64.0543 77.8805 62.6129 77.8805 62.5544C77.8805 62.484 77.1176 61.1012 76.1998 59.4841C75.27 57.8669 74.4832 56.5075 74.4594 56.4489C74.4356 56.4021 75.1508 56.3669 76.0686 56.3669H77.7256L78.3931 57.738ZM79.7878 81.3276V86.9525H60H40.2122V81.3276V75.7027H60H79.7878V81.3276Z" fill="#676879"/>
<path d="M55.0888 58.5231C54.2425 58.7458 53.7537 59.1794 53.2531 60.1638C52.8716 60.9489 52.812 61.1481 52.7643 62.2379C52.6928 63.6676 52.8955 64.6637 53.4438 65.5074C54.0517 66.4332 54.7431 66.8199 55.8517 66.8082C57.5205 66.8082 58.5815 65.5309 58.8556 63.2106C59.0225 61.8864 58.498 60.0231 57.759 59.2614C57.0795 58.5583 56.0543 58.2771 55.0888 58.5231Z" fill="#676879"/>
<path d="M39.9738 62.6247V66.7965H40.9274C43.8122 66.7965 45.3618 65.0973 45.1949 62.0973C45.1115 60.4802 44.5155 59.4958 43.2519 58.8513C42.7393 58.5935 42.4652 58.5349 41.3208 58.4997L39.9738 58.4528V62.6247Z" fill="#676879"/>
</svg>
