<svg width="120" height="120" viewBox="0 0 120 120" fill="none" xmlns="http://www.w3.org/2000/svg">
<path d="M47.2669 60.7434C47.2669 59.1277 46.1268 58.1635 44.1148 58.1635C43.2941 58.1635 42.738 58.2413 42.4464 58.3194V63.5076C42.7911 63.5846 43.2149 63.6109 43.7961 63.6109C45.9427 63.6109 47.2669 62.5424 47.2669 60.7434Z" fill="#676879"/>
<path d="M59.7203 58.2155C58.8186 58.2155 58.2372 58.2936 57.8916 58.3718V69.8667C58.2365 69.9461 58.7929 69.9461 59.2964 69.9461C62.9515 69.9713 65.3357 67.9912 65.3357 63.7943C65.3625 60.1436 63.1897 58.2155 59.7203 58.2155Z" fill="#676879"/>
<path d="M83.5824 51.4617H82.1182V44.5101C82.1182 44.4667 82.1113 44.4231 82.1054 44.3792C82.1031 44.1031 82.0139 43.832 81.8218 43.6172L70.0655 30.4024C70.062 30.399 70.0585 30.3978 70.0561 30.3941C69.986 30.3171 69.9043 30.253 69.818 30.1976C69.7924 30.1807 69.7666 30.1666 69.7398 30.152C69.665 30.1118 69.5856 30.0784 69.5039 30.0544C69.4818 30.0483 69.4619 30.0393 69.4397 30.0337C69.3509 30.013 69.2587 30 69.1653 30H40.2727C38.9534 30 37.8815 31.0559 37.8815 32.353V51.4612H36.4177C34.5304 51.4612 33 52.9664 33 54.8242V72.3128C33 74.1693 34.5304 75.6755 36.4177 75.6755H37.8816V87.647C37.8816 88.944 38.9535 90 40.2728 90H79.7272C81.0453 90 82.1184 88.9441 82.1184 87.647V75.6755H83.5825C85.4693 75.6755 87 74.1693 87 72.3128V54.8248C86.9999 52.9671 85.4692 51.4617 83.5824 51.4617ZM40.2727 32.3535H67.9697V44.3919C67.9697 45.0419 68.5056 45.5684 69.1653 45.5684H79.7271V51.4625H40.2727V32.3535ZM69.6265 63.6626C69.6265 67.026 68.3818 69.345 66.6574 70.7794C64.7787 72.3172 61.9171 73.0468 58.4216 73.0468C56.3293 73.0468 54.8462 72.9164 53.8384 72.7865V55.5299C55.3217 55.2958 57.2567 55.1654 59.2965 55.1654C62.6853 55.1654 64.8845 55.7654 66.6072 57.0419C68.4607 58.3975 69.6265 60.5606 69.6265 63.6626ZM38.4461 72.8647V55.5299C39.6905 55.3225 41.4397 55.1654 43.9033 55.1654C46.3931 55.1654 48.1683 55.6347 49.3599 56.5737C50.4993 57.4594 51.2657 58.9194 51.2657 60.6399C51.2657 62.3609 50.6845 63.8205 49.6241 64.8104C48.2467 66.0879 46.2072 66.6618 43.8225 66.6618C43.2936 66.6618 42.8151 66.6353 42.4459 66.583V72.8652H38.4461V72.8647ZM79.7272 87.01H40.2727V75.6755H79.7271V87.01H79.7272ZM83.1918 58.5541H76.3295V62.5683H82.7406V65.8008H76.3295V72.8648H72.2786V55.2958H83.1918V58.5541Z" fill="#676879"/>
</svg>
