<svg width="588" height="595" viewBox="0 0 588 595" fill="none" xmlns="http://www.w3.org/2000/svg">
<path d="M380.14 378.384L398.726 397.199L321.682 399L316.986 394.396L180.085 261.092L68.9652 152.908L21.6995 106.872L21 106.271V15L22.399 16.4011H105.539L244.338 153.008H157.401L264.324 261.192H298.599C313.888 261.192 327.678 254.787 337.471 244.579L435 340.554C419.211 356.267 400.625 369.077 380.14 378.384Z" fill="#0067C3"/>
<path d="M316 16.6017V156C310.315 153.994 304.231 152.791 297.748 152.791H260.544L124 16H301.238C306.225 16 311.113 16.2006 316 16.6017Z" fill="#007DED"/>
<path d="M489 208.572C489 255.976 472.265 298.46 444.508 331L344 236.392C349.211 228.056 352.217 218.213 352.217 207.567C352.217 202.144 351.415 196.921 349.912 192H488.299C488.699 197.423 489 202.947 489 208.572Z" fill="#007DED"/>
<path d="M487 178H344.872L330 162.21V18C410.646 30.2923 474.524 95.4516 487 178Z" fill="#817EFF"/>
<g filter="url(#filter0_d)">
<path d="M477 476H317.535L21 179.077V16L22.3997 16.1001L157.47 152.649L264.347 260.866L380.321 378.194L398.917 397.014L477 476Z" fill="#007DED"/>
</g>
<g filter="url(#filter1_d)">
<path d="M194 475H20V301L194 475Z" fill="#007DED"/>
</g>
<mask id="path-7-outside-1" maskUnits="userSpaceOnUse" x="536" y="21" width="52" height="574" fill="black">
<rect fill="white" x="536" y="21" width="52" height="574"/>
<path d="M580.303 558.409H583.686V592H539.393V559.422H542.855V587.78H559.534V562.46H562.916V587.78H580.303V558.409Z"/>
<path d="M539.393 486.697L583.686 508.134V512.354L539.393 533.791V529.149L578.966 510.159L539.393 491.17V486.697Z"/>
<path d="M584.079 438.225C584.079 442.952 583.109 447.228 581.168 451.054C579.175 454.88 576.474 457.89 573.065 460.085C569.604 462.279 565.749 463.376 561.5 463.376C557.304 463.376 553.502 462.279 550.093 460.085C546.631 457.89 543.93 454.88 541.99 451.054C539.997 447.228 539 442.952 539 438.225C539 433.499 539.997 429.223 541.99 425.397C543.93 421.57 546.631 418.56 550.093 416.366C553.502 414.172 557.304 413.074 561.5 413.074C565.749 413.074 569.604 414.172 573.065 416.366C576.474 418.56 579.175 421.57 581.168 425.397C583.109 429.223 584.079 433.499 584.079 438.225ZM580.539 438.225C580.539 434.287 579.726 430.742 578.1 427.591C576.474 424.384 574.219 421.88 571.334 420.079C568.397 418.223 565.146 417.294 561.579 417.294C557.96 417.294 554.708 418.223 551.824 420.079C548.939 421.88 546.684 424.384 545.058 427.591C543.379 430.742 542.54 434.287 542.54 438.225C542.54 442.164 543.379 445.709 545.058 448.859C546.684 452.01 548.965 454.514 551.902 456.371C554.787 458.171 558.013 459.072 561.579 459.072C565.146 459.072 568.397 458.171 571.334 456.371C574.219 454.514 576.474 452.01 578.1 448.859C579.726 445.709 580.539 442.164 580.539 438.225Z"/>
<path d="M539.393 379.803V375.583H580.303V348.238H583.686V379.803H539.393Z"/>
<path d="M584.079 300.766C584.079 306.899 582.453 311.709 579.202 315.198C575.897 318.63 571.151 320.346 564.962 320.346H539.393V316.126H564.805C569.997 316.126 573.931 314.804 576.605 312.16C579.228 309.515 580.539 305.717 580.539 300.766C580.539 295.814 579.228 292.045 576.605 289.456C573.983 286.812 570.049 285.49 564.805 285.49H539.393V281.27H564.962C571.151 281.27 575.897 282.986 579.202 286.418C582.453 289.85 584.079 294.633 584.079 300.766Z"/>
<path d="M542.855 235.373V252.59H539.393V213.936H542.855V231.153H583.686V235.373H542.855Z"/>
<path d="M539.393 184.749V180.529H583.686V184.749H539.393Z"/>
<path d="M584.079 122.174C584.079 126.901 583.109 131.177 581.168 135.003C579.175 138.829 576.474 141.839 573.065 144.034C569.604 146.228 565.749 147.325 561.5 147.325C557.304 147.325 553.502 146.228 550.093 144.034C546.631 141.839 543.93 138.829 541.99 135.003C539.997 131.177 539 126.901 539 122.174C539 117.448 539.997 113.172 541.99 109.346C543.93 105.52 546.631 102.51 550.093 100.315C553.502 98.1208 557.304 97.0236 561.5 97.0236C565.749 97.0236 569.604 98.1208 573.065 100.315C576.474 102.51 579.175 105.52 581.168 109.346C583.109 113.172 584.079 117.448 584.079 122.174ZM580.539 122.174C580.539 118.236 579.726 114.691 578.1 111.54C576.474 108.333 574.219 105.829 571.334 104.029C568.397 102.172 565.146 101.244 561.579 101.244C557.96 101.244 554.708 102.172 551.824 104.029C548.939 105.829 546.684 108.333 545.058 111.54C543.379 114.691 542.54 118.236 542.54 122.174C542.54 126.113 543.379 129.658 545.058 132.809C546.684 135.96 548.965 138.463 551.902 140.32C554.787 142.121 558.013 143.021 561.579 143.021C565.146 143.021 568.397 142.121 571.334 140.32C574.219 138.463 576.474 135.96 578.1 132.809C579.726 129.658 580.539 126.113 580.539 122.174Z"/>
<path d="M539.393 24H583.686V27.5448L546.238 59.532H583.686V63.7519H539.393V60.2072L576.763 28.3044H539.393V24Z"/>
</mask>
<path d="M580.303 558.409H583.686V592H539.393V559.422H542.855V587.78H559.534V562.46H562.916V587.78H580.303V558.409Z" fill="#011222"/>
<path d="M539.393 486.697L583.686 508.134V512.354L539.393 533.791V529.149L578.966 510.159L539.393 491.17V486.697Z" fill="#011222"/>
<path d="M584.079 438.225C584.079 442.952 583.109 447.228 581.168 451.054C579.175 454.88 576.474 457.89 573.065 460.085C569.604 462.279 565.749 463.376 561.5 463.376C557.304 463.376 553.502 462.279 550.093 460.085C546.631 457.89 543.93 454.88 541.99 451.054C539.997 447.228 539 442.952 539 438.225C539 433.499 539.997 429.223 541.99 425.397C543.93 421.57 546.631 418.56 550.093 416.366C553.502 414.172 557.304 413.074 561.5 413.074C565.749 413.074 569.604 414.172 573.065 416.366C576.474 418.56 579.175 421.57 581.168 425.397C583.109 429.223 584.079 433.499 584.079 438.225ZM580.539 438.225C580.539 434.287 579.726 430.742 578.1 427.591C576.474 424.384 574.219 421.88 571.334 420.079C568.397 418.223 565.146 417.294 561.579 417.294C557.96 417.294 554.708 418.223 551.824 420.079C548.939 421.88 546.684 424.384 545.058 427.591C543.379 430.742 542.54 434.287 542.54 438.225C542.54 442.164 543.379 445.709 545.058 448.859C546.684 452.01 548.965 454.514 551.902 456.371C554.787 458.171 558.013 459.072 561.579 459.072C565.146 459.072 568.397 458.171 571.334 456.371C574.219 454.514 576.474 452.01 578.1 448.859C579.726 445.709 580.539 442.164 580.539 438.225Z" fill="#011222"/>
<path d="M539.393 379.803V375.583H580.303V348.238H583.686V379.803H539.393Z" fill="#011222"/>
<path d="M584.079 300.766C584.079 306.899 582.453 311.709 579.202 315.198C575.897 318.63 571.151 320.346 564.962 320.346H539.393V316.126H564.805C569.997 316.126 573.931 314.804 576.605 312.16C579.228 309.515 580.539 305.717 580.539 300.766C580.539 295.814 579.228 292.045 576.605 289.456C573.983 286.812 570.049 285.49 564.805 285.49H539.393V281.27H564.962C571.151 281.27 575.897 282.986 579.202 286.418C582.453 289.85 584.079 294.633 584.079 300.766Z" fill="#011222"/>
<path d="M542.855 235.373V252.59H539.393V213.936H542.855V231.153H583.686V235.373H542.855Z" fill="#011222"/>
<path d="M539.393 184.749V180.529H583.686V184.749H539.393Z" fill="#011222"/>
<path d="M584.079 122.174C584.079 126.901 583.109 131.177 581.168 135.003C579.175 138.829 576.474 141.839 573.065 144.034C569.604 146.228 565.749 147.325 561.5 147.325C557.304 147.325 553.502 146.228 550.093 144.034C546.631 141.839 543.93 138.829 541.99 135.003C539.997 131.177 539 126.901 539 122.174C539 117.448 539.997 113.172 541.99 109.346C543.93 105.52 546.631 102.51 550.093 100.315C553.502 98.1208 557.304 97.0236 561.5 97.0236C565.749 97.0236 569.604 98.1208 573.065 100.315C576.474 102.51 579.175 105.52 581.168 109.346C583.109 113.172 584.079 117.448 584.079 122.174ZM580.539 122.174C580.539 118.236 579.726 114.691 578.1 111.54C576.474 108.333 574.219 105.829 571.334 104.029C568.397 102.172 565.146 101.244 561.579 101.244C557.96 101.244 554.708 102.172 551.824 104.029C548.939 105.829 546.684 108.333 545.058 111.54C543.379 114.691 542.54 118.236 542.54 122.174C542.54 126.113 543.379 129.658 545.058 132.809C546.684 135.96 548.965 138.463 551.902 140.32C554.787 142.121 558.013 143.021 561.579 143.021C565.146 143.021 568.397 142.121 571.334 140.32C574.219 138.463 576.474 135.96 578.1 132.809C579.726 129.658 580.539 126.113 580.539 122.174Z" fill="#011222"/>
<path d="M539.393 24H583.686V27.5448L546.238 59.532H583.686V63.7519H539.393V60.2072L576.763 28.3044H539.393V24Z" fill="#011222"/>
<path d="M580.303 558.409H583.686V592H539.393V559.422H542.855V587.78H559.534V562.46H562.916V587.78H580.303V558.409Z" stroke="black" stroke-width="6" mask="url(#path-7-outside-1)"/>
<path d="M539.393 486.697L583.686 508.134V512.354L539.393 533.791V529.149L578.966 510.159L539.393 491.17V486.697Z" stroke="black" stroke-width="6" mask="url(#path-7-outside-1)"/>
<path d="M584.079 438.225C584.079 442.952 583.109 447.228 581.168 451.054C579.175 454.88 576.474 457.89 573.065 460.085C569.604 462.279 565.749 463.376 561.5 463.376C557.304 463.376 553.502 462.279 550.093 460.085C546.631 457.89 543.93 454.88 541.99 451.054C539.997 447.228 539 442.952 539 438.225C539 433.499 539.997 429.223 541.99 425.397C543.93 421.57 546.631 418.56 550.093 416.366C553.502 414.172 557.304 413.074 561.5 413.074C565.749 413.074 569.604 414.172 573.065 416.366C576.474 418.56 579.175 421.57 581.168 425.397C583.109 429.223 584.079 433.499 584.079 438.225ZM580.539 438.225C580.539 434.287 579.726 430.742 578.1 427.591C576.474 424.384 574.219 421.88 571.334 420.079C568.397 418.223 565.146 417.294 561.579 417.294C557.96 417.294 554.708 418.223 551.824 420.079C548.939 421.88 546.684 424.384 545.058 427.591C543.379 430.742 542.54 434.287 542.54 438.225C542.54 442.164 543.379 445.709 545.058 448.859C546.684 452.01 548.965 454.514 551.902 456.371C554.787 458.171 558.013 459.072 561.579 459.072C565.146 459.072 568.397 458.171 571.334 456.371C574.219 454.514 576.474 452.01 578.1 448.859C579.726 445.709 580.539 442.164 580.539 438.225Z" stroke="black" stroke-width="6" mask="url(#path-7-outside-1)"/>
<path d="M539.393 379.803V375.583H580.303V348.238H583.686V379.803H539.393Z" stroke="black" stroke-width="6" mask="url(#path-7-outside-1)"/>
<path d="M584.079 300.766C584.079 306.899 582.453 311.709 579.202 315.198C575.897 318.63 571.151 320.346 564.962 320.346H539.393V316.126H564.805C569.997 316.126 573.931 314.804 576.605 312.16C579.228 309.515 580.539 305.717 580.539 300.766C580.539 295.814 579.228 292.045 576.605 289.456C573.983 286.812 570.049 285.49 564.805 285.49H539.393V281.27H564.962C571.151 281.27 575.897 282.986 579.202 286.418C582.453 289.85 584.079 294.633 584.079 300.766Z" stroke="black" stroke-width="6" mask="url(#path-7-outside-1)"/>
<path d="M542.855 235.373V252.59H539.393V213.936H542.855V231.153H583.686V235.373H542.855Z" stroke="black" stroke-width="6" mask="url(#path-7-outside-1)"/>
<path d="M539.393 184.749V180.529H583.686V184.749H539.393Z" stroke="black" stroke-width="6" mask="url(#path-7-outside-1)"/>
<path d="M584.079 122.174C584.079 126.901 583.109 131.177 581.168 135.003C579.175 138.829 576.474 141.839 573.065 144.034C569.604 146.228 565.749 147.325 561.5 147.325C557.304 147.325 553.502 146.228 550.093 144.034C546.631 141.839 543.93 138.829 541.99 135.003C539.997 131.177 539 126.901 539 122.174C539 117.448 539.997 113.172 541.99 109.346C543.93 105.52 546.631 102.51 550.093 100.315C553.502 98.1208 557.304 97.0236 561.5 97.0236C565.749 97.0236 569.604 98.1208 573.065 100.315C576.474 102.51 579.175 105.52 581.168 109.346C583.109 113.172 584.079 117.448 584.079 122.174ZM580.539 122.174C580.539 118.236 579.726 114.691 578.1 111.54C576.474 108.333 574.219 105.829 571.334 104.029C568.397 102.172 565.146 101.244 561.579 101.244C557.96 101.244 554.708 102.172 551.824 104.029C548.939 105.829 546.684 108.333 545.058 111.54C543.379 114.691 542.54 118.236 542.54 122.174C542.54 126.113 543.379 129.658 545.058 132.809C546.684 135.96 548.965 138.463 551.902 140.32C554.787 142.121 558.013 143.021 561.579 143.021C565.146 143.021 568.397 142.121 571.334 140.32C574.219 138.463 576.474 135.96 578.1 132.809C579.726 129.658 580.539 126.113 580.539 122.174Z" stroke="black" stroke-width="6" mask="url(#path-7-outside-1)"/>
<path d="M539.393 24H583.686V27.5448L546.238 59.532H583.686V63.7519H539.393V60.2072L576.763 28.3044H539.393V24Z" stroke="black" stroke-width="6" mask="url(#path-7-outside-1)"/>
<path d="M62.9935 593L49.9798 574.336H49.2086H35.6165V593H20V526H49.2086C55.1853 526 60.3587 526.989 64.7287 528.967C69.163 530.945 72.5691 533.753 74.9469 537.39C77.3247 541.027 78.5136 545.334 78.5136 550.311C78.5136 555.289 77.2926 559.596 74.8505 563.233C72.4727 566.806 69.0666 569.55 64.6323 571.464L79.7668 593H62.9935ZM62.7043 550.311C62.7043 546.547 61.4833 543.675 59.0412 541.697C56.5991 539.655 53.0324 538.634 48.341 538.634H35.6165V561.989H48.341C53.0324 561.989 56.5991 560.968 59.0412 558.926C61.4833 556.884 62.7043 554.012 62.7043 550.311Z" fill="#817EFF"/>
<path d="M143.134 580.557V593H90.8865V526H141.881V538.443H106.407V552.991H137.736V565.051H106.407V580.557H143.134Z" fill="#817EFF"/>
<path d="M155.56 526H186.214C193.541 526 199.999 527.404 205.59 530.211C211.246 532.955 215.616 536.848 218.701 541.889C221.85 546.93 223.424 552.8 223.424 559.5C223.424 566.2 221.85 572.07 218.701 577.111C215.616 582.152 211.246 586.077 205.59 588.884C199.999 591.628 193.541 593 186.214 593H155.56V526ZM185.443 580.27C192.191 580.27 197.557 578.42 201.542 574.719C205.59 570.954 207.615 565.881 207.615 559.5C207.615 553.119 205.59 548.078 201.542 544.377C197.557 540.612 192.191 538.73 185.443 538.73H171.176V580.27H185.443Z" fill="#817EFF"/>
<path d="M296.607 593L296.51 552.8L276.652 585.917H269.615L249.854 553.661V593H235.201V526H248.119L273.375 567.636L298.246 526H311.066L311.259 593H296.607Z" fill="#817EFF"/>
<path d="M327.269 526H342.885V593H327.269V526Z" fill="#817EFF"/>
<path d="M420.787 526V593H407.966L374.323 552.321V593H358.899V526H371.817L405.363 566.679V526H420.787Z" fill="#817EFF"/>
<path d="M489 580.557V593H436.752V526H487.747V538.443H452.272V552.991H483.602V565.051H452.272V580.557H489Z" fill="#817EFF"/>
<defs>
<filter id="filter0_d" x="1" y="0" width="496" height="500" filterUnits="userSpaceOnUse" color-interpolation-filters="sRGB">
<feFlood flood-opacity="0" result="BackgroundImageFix"/>
<feColorMatrix in="SourceAlpha" type="matrix" values="0 0 0 0 0 0 0 0 0 0 0 0 0 0 0 0 0 0 127 0"/>
<feOffset dy="4"/>
<feGaussianBlur stdDeviation="10"/>
<feColorMatrix type="matrix" values="0 0 0 0 0.0425174 0 0 0 0 0.0539833 0 0 0 0 0.329167 0 0 0 0.25 0"/>
<feBlend mode="normal" in2="BackgroundImageFix" result="effect1_dropShadow"/>
<feBlend mode="normal" in="SourceGraphic" in2="effect1_dropShadow" result="shape"/>
</filter>
<filter id="filter1_d" x="0" y="285" width="214" height="214" filterUnits="userSpaceOnUse" color-interpolation-filters="sRGB">
<feFlood flood-opacity="0" result="BackgroundImageFix"/>
<feColorMatrix in="SourceAlpha" type="matrix" values="0 0 0 0 0 0 0 0 0 0 0 0 0 0 0 0 0 0 127 0"/>
<feOffset dy="4"/>
<feGaussianBlur stdDeviation="10"/>
<feColorMatrix type="matrix" values="0 0 0 0 0.0425174 0 0 0 0 0.0539833 0 0 0 0 0.329167 0 0 0 0.25 0"/>
<feBlend mode="normal" in2="BackgroundImageFix" result="effect1_dropShadow"/>
<feBlend mode="normal" in="SourceGraphic" in2="effect1_dropShadow" result="shape"/>
</filter>
</defs>
</svg>
