<svg width="30" height="30" viewBox="0 0 30 30" fill="none" xmlns="http://www.w3.org/2000/svg">
<path d="M18.9993 13C18.9993 9.68658 16.3129 7 12.9994 7C9.68597 7 6.99939 9.68658 6.99939 13C6.99939 16.3134 9.68597 18.9999 12.9994 18.9999C16.3129 18.9999 18.9993 16.3134 18.9993 13ZM12.9994 17.4998C10.5179 17.4998 8.49943 15.4815 8.49943 13C8.49943 10.5186 10.5179 8.50007 12.9994 8.50007C15.4808 8.50007 17.4994 10.5186 17.4994 13C17.4994 15.4815 15.4808 17.4998 12.9994 17.4998Z" fill="#A5A5A5"/>
<path d="M22.5597 20.4396L18.8891 16.7687C18.3422 17.6192 17.6184 18.3427 16.7678 18.8896L20.4387 22.5606C21.0248 23.1465 21.9749 23.1465 22.5597 22.5606C23.1458 21.9756 23.1458 21.0254 22.5597 20.4396Z" fill="#A5A5A5"/>
</svg>
