<svg width="30" height="30" viewBox="0 0 30 30" fill="none" xmlns="http://www.w3.org/2000/svg">
<path d="M9.03122 18L5.33522 12.08H6.64722L10.3432 18H9.03122ZM5.35922 18L7.34322 14.768L7.95122 15.768L6.67122 18H5.35922ZM8.35122 15.384L7.75122 14.384L9.06322 12.08H10.3672L8.35122 15.384ZM12.4159 18C12.1119 18 11.8532 17.9547 11.6399 17.864C11.4319 17.768 11.2746 17.6187 11.1679 17.416C11.0666 17.208 11.0159 16.936 11.0159 16.6V12.08H12.1999V16.408C12.1999 16.536 12.2212 16.64 12.2639 16.72C12.3119 16.8 12.3759 16.856 12.4559 16.888C12.5359 16.9147 12.6266 16.928 12.7279 16.928H14.5999V18H12.4159ZM17.0812 18.048C16.9265 18.048 16.7665 18.0427 16.6012 18.032C16.4412 18.0267 16.2758 18.016 16.1052 18C15.9398 17.9787 15.7825 17.9573 15.6332 17.936C15.4838 17.9093 15.3478 17.88 15.2252 17.848V16.912C15.3852 16.928 15.5665 16.9413 15.7692 16.952C15.9718 16.9627 16.1825 16.9707 16.4012 16.976C16.6198 16.9813 16.8278 16.984 17.0252 16.984C17.2278 16.984 17.4012 16.968 17.5452 16.936C17.6945 16.8987 17.8092 16.8373 17.8892 16.752C17.9692 16.6613 18.0092 16.5387 18.0092 16.384V16.168C18.0092 15.992 17.9558 15.8587 17.8492 15.768C17.7478 15.672 17.6012 15.624 17.4092 15.624H16.9052C16.3398 15.624 15.9052 15.5013 15.6012 15.256C15.3025 15.0053 15.1532 14.5813 15.1532 13.984V13.696C15.1532 13.12 15.3185 12.6987 15.6492 12.432C15.9798 12.1653 16.4518 12.032 17.0652 12.032C17.2838 12.032 17.4998 12.0427 17.7132 12.064C17.9318 12.0853 18.1398 12.112 18.3372 12.144C18.5398 12.1707 18.7132 12.2 18.8572 12.232V13.168C18.6118 13.152 18.3372 13.136 18.0332 13.12C17.7345 13.104 17.4572 13.096 17.2012 13.096C17.0198 13.096 16.8572 13.1147 16.7132 13.152C16.5745 13.184 16.4678 13.248 16.3932 13.344C16.3185 13.44 16.2812 13.576 16.2812 13.752V13.912C16.2812 14.12 16.3398 14.2693 16.4572 14.36C16.5745 14.4507 16.7478 14.496 16.9772 14.496H17.5612C17.9185 14.496 18.2118 14.5627 18.4412 14.696C18.6758 14.824 18.8492 15.0027 18.9612 15.232C19.0785 15.4613 19.1372 15.7227 19.1372 16.016V16.352C19.1372 16.816 19.0492 17.1707 18.8732 17.416C18.7025 17.6613 18.4625 17.8293 18.1532 17.92C17.8492 18.0053 17.4918 18.048 17.0812 18.048ZM23.3281 18L19.6321 12.08H20.9441L24.6401 18H23.3281ZM19.6561 18L21.6401 14.768L22.2481 15.768L20.9681 18H19.6561ZM22.6481 15.384L22.0481 14.384L23.3601 12.08H24.6641L22.6481 15.384Z" fill="#292D32"/>
</svg>
