<svg width="30" height="30" viewBox="0 0 30 30" fill="none" xmlns="http://www.w3.org/2000/svg">
<path d="M7.5 23.3333H22.5" stroke="#fff" stroke-width="1.5" stroke-linecap="round" stroke-linejoin="round"/>
<path d="M9.66665 11.9833H8.33333C7.875 11.9833 7.5 12.3583 7.5 12.8167V20C7.5 20.4583 7.875 20.8333 8.33333 20.8333H9.66665C10.125 20.8333 10.5 20.4583 10.5 20V12.8167C10.5 12.3583 10.125 11.9833 9.66665 11.9833Z" stroke="#fff" stroke-width="1.5" stroke-linecap="round" stroke-linejoin="round"/>
<path d="M15.6666 9.325H14.3333C13.875 9.325 13.5 9.7 13.5 10.1583V20C13.5 20.4583 13.875 20.8333 14.3333 20.8333H15.6666C16.125 20.8333 16.5 20.4583 16.5 20V10.1583C16.5 9.7 16.125 9.325 15.6666 9.325Z" stroke="#fff" stroke-width="1.5" stroke-linecap="round" stroke-linejoin="round"/>
<path d="M21.6667 6.66667H20.3334C19.875 6.66667 19.5 7.04167 19.5 7.50001V20C19.5 20.4583 19.875 20.8333 20.3334 20.8333H21.6667C22.125 20.8333 22.5 20.4583 22.5 20V7.50001C22.5 7.04167 22.125 6.66667 21.6667 6.66667Z" stroke="#fff" stroke-width="1.5" stroke-linecap="round" stroke-linejoin="round"/>
</svg>
