<svg width="30" height="30" viewBox="0 0 30 30" fill="none" xmlns="http://www.w3.org/2000/svg">
<path d="M12.5028 15.9305C12.5028 15.705 12.3157 15.5223 12.085 15.5223H10.6269C10.3964 15.5223 10.2093 15.705 10.2093 15.9305V17.356C10.2093 17.5818 10.3964 17.7646 10.6269 17.7646H12.085C12.3157 17.7646 12.5028 17.5818 12.5028 17.356V15.9305Z" fill="#A5A5A5"/>
<path d="M16.1467 15.9305C16.1467 15.705 15.9596 15.5223 15.7293 15.5223H14.271C14.0405 15.5223 13.8534 15.705 13.8534 15.9305V17.356C13.8534 17.5818 14.0405 17.7646 14.271 17.7646H15.7293C15.9596 17.7646 16.1467 17.5818 16.1467 17.356V15.9305Z" fill="#A5A5A5"/>
<path d="M19.7907 15.9305C19.7907 15.705 19.6036 15.5223 19.3731 15.5223H17.915C17.6843 15.5223 17.4972 15.705 17.4972 15.9305V17.356C17.4972 17.5818 17.6843 17.7646 17.915 17.7646H19.3731C19.6036 17.7646 19.7907 17.5818 19.7907 17.356V15.9305Z" fill="#A5A5A5"/>
<path d="M12.5028 19.4939C12.5028 19.2681 12.3157 19.0855 12.085 19.0855H10.6269C10.3964 19.0855 10.2093 19.2681 10.2093 19.4939V20.9192C10.2093 21.1448 10.3964 21.3275 10.6269 21.3275H12.085C12.3157 21.3275 12.5028 21.1448 12.5028 20.9192V19.4939Z" fill="#A5A5A5"/>
<path d="M16.1467 19.4939C16.1467 19.2681 15.9596 19.0855 15.7293 19.0855H14.271C14.0405 19.0855 13.8534 19.2681 13.8534 19.4939V20.9192C13.8534 21.1448 14.0405 21.3275 14.271 21.3275H15.7293C15.9596 21.3275 16.1467 21.1448 16.1467 20.9192V19.4939Z" fill="#A5A5A5"/>
<path d="M19.7907 19.4939C19.7907 19.2681 19.6036 19.0855 19.3733 19.0855H17.915C17.6843 19.0855 17.4972 19.2681 17.4972 19.4939V20.9192C17.4972 21.1448 17.6843 21.3275 17.915 21.3275H19.3733C19.6036 21.3275 19.7907 21.1448 19.7907 20.9192V19.4939Z" fill="#A5A5A5"/>
<path d="M22.3978 8.00425V10.1816C22.3978 11.1658 21.5813 11.9589 20.575 11.9589H19.4251C18.4187 11.9589 17.5914 11.1658 17.5914 10.1816V7.99643H12.4086V10.1816C12.4086 11.1658 11.5813 11.9589 10.5751 11.9589H9.42495C8.41867 11.9589 7.60221 11.1658 7.60221 10.1816V8.00425C6.72271 8.03017 6 8.74179 6 9.61648V22.377C6 23.2681 6.73866 24 7.64999 24H22.35C23.26 24 24 23.2666 24 22.377V9.61648C24 8.74179 23.2773 8.03017 22.3978 8.00425ZM21.8637 21.5824C21.8637 21.9675 21.5444 22.2799 21.1504 22.2799H8.81816C8.42417 22.2799 8.10485 21.9675 8.10485 21.5824V14.9911C8.10485 14.6059 8.42413 14.2934 8.81816 14.2934H21.1504C21.5444 14.2934 21.8637 14.6059 21.8637 14.9911L21.8637 21.5824Z" fill="#A5A5A5"/>
<path d="M9.4209 10.7916H10.5583C10.9035 10.7916 11.1835 10.5182 11.1835 10.1807V6.61111C11.1835 6.27349 10.9035 6 10.5583 6H9.4209C9.07563 6 8.79575 6.27349 8.79575 6.61111V10.1807C8.79575 10.5182 9.07563 10.7916 9.4209 10.7916Z" fill="#A5A5A5"/>
<path d="M19.4105 10.7916H20.5479C20.8929 10.7916 21.1728 10.5182 21.1728 10.1807V6.61111C21.1729 6.27349 20.893 6 20.5479 6H19.4105C19.0653 6 18.7854 6.27349 18.7854 6.61111V10.1807C18.7854 10.5182 19.0653 10.7916 19.4105 10.7916Z" fill="#A5A5A5"/>
</svg>
