<svg width="30" height="30" viewBox="0 0 30 30" fill="none" xmlns="http://www.w3.org/2000/svg">
<path d="M22.05 13.7L21.2333 17.1833C20.5333 20.1917 19.15 21.4083 16.55 21.1583C16.1333 21.125 15.6833 21.05 15.2 20.9333L13.8 20.6C10.325 19.775 9.25 18.0583 10.0667 14.575L10.8833 11.0833C11.05 10.375 11.25 9.75833 11.5 9.25C12.475 7.23333 14.1333 6.69167 16.9167 7.35L18.3083 7.675C21.8 8.49167 22.8667 10.2167 22.05 13.7Z" stroke="#fff" stroke-width="1.5" stroke-linecap="round" stroke-linejoin="round"/>
<path d="M16.55 21.1583C16.0333 21.5083 15.3833 21.8 14.5917 22.0583L13.275 22.4917C9.96666 23.5583 8.22499 22.6667 7.14999 19.3583L6.08333 16.0667C5.01666 12.7583 5.89999 11.0083 9.20833 9.94167L10.525 9.50833C10.8667 9.4 11.1917 9.30833 11.5 9.25C11.25 9.75833 11.05 10.375 10.8833 11.0833L10.0667 14.575C9.24999 18.0583 10.325 19.775 13.8 20.6L15.2 20.9333C15.6833 21.05 16.1333 21.125 16.55 21.1583Z" stroke="#fff" stroke-width="1.5" stroke-linecap="round" stroke-linejoin="round"/>
</svg>
