<svg width="30" height="30" viewBox="0 0 30 30" fill="none" xmlns="http://www.w3.org/2000/svg">
<path d="M15 17.5C16.3807 17.5 17.5 16.3807 17.5 15C17.5 13.6193 16.3807 12.5 15 12.5C13.6193 12.5 12.5 13.6193 12.5 15C12.5 16.3807 13.6193 17.5 15 17.5Z" stroke="#fff" stroke-width="1.5" stroke-miterlimit="10" stroke-linecap="round" stroke-linejoin="round"/>
<path d="M6.66667 15.7333V14.2667C6.66667 13.4 7.375 12.6833 8.25 12.6833C9.75833 12.6833 10.375 11.6167 9.61667 10.3083C9.18333 9.55833 9.44167 8.58333 10.2 8.15L11.6417 7.325C12.3 6.93333 13.15 7.16666 13.5417 7.825L13.6333 7.98333C14.3833 9.29166 15.6167 9.29166 16.375 7.98333L16.4667 7.825C16.8583 7.16666 17.7083 6.93333 18.3667 7.325L19.8083 8.15C20.5667 8.58333 20.825 9.55833 20.3917 10.3083C19.6333 11.6167 20.25 12.6833 21.7583 12.6833C22.625 12.6833 23.3417 13.3917 23.3417 14.2667V15.7333C23.3417 16.6 22.6333 17.3167 21.7583 17.3167C20.25 17.3167 19.6333 18.3833 20.3917 19.6917C20.825 20.45 20.5667 21.4167 19.8083 21.85L18.3667 22.675C17.7083 23.0667 16.8583 22.8333 16.4667 22.175L16.375 22.0167C15.625 20.7083 14.3917 20.7083 13.6333 22.0167L13.5417 22.175C13.15 22.8333 12.3 23.0667 11.6417 22.675L10.2 21.85C9.44167 21.4167 9.18333 20.4417 9.61667 19.6917C10.375 18.3833 9.75833 17.3167 8.25 17.3167C7.375 17.3167 6.66667 16.6 6.66667 15.7333Z" stroke="#fff" stroke-width="1.5" stroke-miterlimit="10" stroke-linecap="round" stroke-linejoin="round"/>
</svg>
