<svg width="30" height="30" viewBox="0 0 30 30" fill="none" xmlns="http://www.w3.org/2000/svg">
<path d="M21.6667 11.875V20C21.6667 22.5 20.175 23.3333 18.3333 23.3333H11.6667C9.825 23.3333 8.33334 22.5 8.33334 20V11.875C8.33334 9.16667 9.825 8.54167 11.6667 8.54167C11.6667 9.05834 11.875 9.525 12.2166 9.86667C12.5583 10.2083 13.025 10.4167 13.5417 10.4167H16.4583C17.4917 10.4167 18.3333 9.57501 18.3333 8.54167C20.175 8.54167 21.6667 9.16667 21.6667 11.875Z" stroke="#fff" stroke-width="1.5" stroke-linecap="round" stroke-linejoin="round"/>
<path d="M18.3333 8.54167C18.3333 9.57501 17.4917 10.4167 16.4583 10.4167H13.5417C13.025 10.4167 12.5583 10.2083 12.2166 9.86667C11.875 9.525 11.6667 9.05834 11.6667 8.54167C11.6667 7.50834 12.5083 6.66667 13.5417 6.66667H16.4583C16.975 6.66667 17.4417 6.87501 17.7834 7.21667C18.125 7.55834 18.3333 8.02501 18.3333 8.54167Z" stroke="#fff" stroke-width="1.5" stroke-linecap="round" stroke-linejoin="round"/>
<path d="M15 17.5001C16.0724 17.5001 16.9417 16.6307 16.9417 15.5584C16.9417 14.486 16.0724 13.6167 15 13.6167C13.9276 13.6167 13.0583 14.486 13.0583 15.5584C13.0583 16.6307 13.9276 17.5001 15 17.5001Z" stroke="#fff" stroke-width="1.5" stroke-linecap="round" stroke-linejoin="round"/>
<path d="M18.3333 22.2167C18.3333 20.7167 16.8417 19.5001 15 19.5001C13.1583 19.5001 11.6667 20.7167 11.6667 22.2167" stroke="#fff" stroke-width="1.5" stroke-linecap="round" stroke-linejoin="round"/>
</svg>
