<svg width="30" height="30" viewBox="0 0 30 30" fill="none" xmlns="http://www.w3.org/2000/svg">
<path d="M21.4917 17.4417C19.775 19.15 17.3167 19.675 15.1583 19L11.2333 22.9167C10.95 23.2083 10.3917 23.3833 9.99167 23.325L8.175 23.075C7.575 22.9917 7.01667 22.425 6.925 21.825L6.675 20.0083C6.61667 19.6083 6.80833 19.05 7.08333 18.7667L11 14.85C10.3333 12.6833 10.85 10.225 12.5667 8.51666C15.025 6.05833 19.0167 6.05833 21.4833 8.51666C23.95 10.975 23.95 14.9833 21.4917 17.4417Z" stroke="#fff" stroke-width="1.5" stroke-miterlimit="10" stroke-linecap="round" stroke-linejoin="round"/>
<path d="M10.7417 19.575L12.6583 21.4917" stroke="#fff" stroke-width="1.5" stroke-miterlimit="10" stroke-linecap="round" stroke-linejoin="round"/>
<path d="M17.0833 14.1667C17.7737 14.1667 18.3333 13.607 18.3333 12.9167C18.3333 12.2263 17.7737 11.6667 17.0833 11.6667C16.393 11.6667 15.8333 12.2263 15.8333 12.9167C15.8333 13.607 16.393 14.1667 17.0833 14.1667Z" stroke="#fff" stroke-width="1.5" stroke-linecap="round" stroke-linejoin="round"/>
</svg>
