<svg width="30" height="30" viewBox="0 0 30 30" fill="none" xmlns="http://www.w3.org/2000/svg">
<path d="M23.3333 18.95V8.89167C23.3333 7.89167 22.5167 7.15 21.525 7.23333H21.475C19.725 7.38333 17.0667 8.275 15.5833 9.20833L15.4417 9.3C15.2 9.45 14.8 9.45 14.5583 9.3L14.35 9.175C12.8667 8.25 10.2167 7.36667 8.46667 7.225C7.475 7.14167 6.66667 7.89167 6.66667 8.88333V18.95C6.66667 19.75 7.31667 20.5 8.11667 20.6L8.35834 20.6333C10.1667 20.875 12.9583 21.7917 14.5583 22.6667L14.5917 22.6833C14.8167 22.8083 15.175 22.8083 15.3917 22.6833C16.9917 21.8 19.7917 20.875 21.6083 20.6333L21.8833 20.6C22.6833 20.5 23.3333 19.75 23.3333 18.95Z" stroke="#fff" stroke-width="1.5" stroke-linecap="round" stroke-linejoin="round"/>
<path d="M15 9.575V22.075" stroke="#fff" stroke-width="1.5" stroke-linecap="round" stroke-linejoin="round"/>
<path d="M11.4583 12.075H9.58333" stroke="#fff" stroke-width="1.5" stroke-linecap="round" stroke-linejoin="round"/>
<path d="M12.0833 14.575H9.58333" stroke="#fff" stroke-width="1.5" stroke-linecap="round" stroke-linejoin="round"/>
</svg>
