<svg width="120" height="120" viewBox="0 0 120 120" fill="none" xmlns="http://www.w3.org/2000/svg">
<path d="M39.3778 30.1927C38.8771 30.4037 38.3526 30.8724 38.0904 31.3529C37.9116 31.6693 37.8877 32.6302 37.852 41.5598L37.8162 51.4269L36.7195 51.4738C35.3845 51.5324 34.5858 51.8488 33.9183 52.5519C32.9527 53.5831 33.0004 53.0089 33.0004 63.6377C33.0004 73.0243 33.0004 73.0712 33.2507 73.6103C33.8944 74.9696 34.9196 75.5907 36.7195 75.6845L37.8162 75.7431L37.852 82.0242C37.8877 88.9148 37.8639 88.6101 38.6268 89.325C39.4016 90.0515 37.8997 90.0046 60 90.0046C82.1003 90.0046 80.5984 90.0515 81.3732 89.325C82.1361 88.6101 82.1123 88.9148 82.148 82.0242L82.1838 75.7431L83.2805 75.6845C85.0804 75.5907 86.1056 74.9696 86.7493 73.6103C86.9996 73.0712 86.9996 73.0243 86.9996 63.6377C86.9996 53.0089 87.0473 53.5831 86.0817 52.5519C85.4142 51.8488 84.6155 51.5324 83.2805 51.4738L82.1719 51.4269L82.1599 47.8879C82.148 45.9543 82.1123 44.2317 82.0646 44.0676C81.9692 43.716 70.2157 30.474 69.7509 30.1927C69.4648 30.017 68.1058 30.0052 54.612 30.0052C41.6426 30.017 39.7473 30.0404 39.3778 30.1927ZM67.9866 38.5598V44.7707L68.3323 45.1457L68.678 45.5324L74.2329 45.5676L79.7878 45.6027V48.5207V51.4503H60H40.2122V41.8997V32.349H54.0994H67.9866V38.5598ZM68.4992 56.4659C68.9522 56.5948 69.3694 56.7472 69.4409 56.8175C69.5124 56.8878 69.4409 57.3331 69.2383 58.0831C69.0595 58.7276 68.9045 59.2549 68.8807 59.2784C68.8568 59.3018 68.4515 59.1964 67.9747 59.044C66.7231 58.669 65.1258 58.669 64.5059 59.044C63.898 59.419 63.7192 59.9698 64.0172 60.5557C64.2556 61.0479 64.7085 61.3057 66.9138 62.2198C67.9986 62.6768 68.2727 62.8526 68.9641 63.5205C69.6197 64.1651 69.7866 64.4111 69.9535 64.9854C70.4065 66.4971 69.9535 68.0556 68.7853 69.0986C67.629 70.1298 66.3059 70.4814 63.9933 70.3994C62.7059 70.3642 62.2768 70.2939 61.4662 70.0244C60.8225 69.8134 60.4768 69.6377 60.4768 69.5322C60.4768 69.3681 60.6079 68.8291 60.9655 67.4814L61.0848 67.0478L61.645 67.2822C62.9443 67.833 65.0542 68.0439 65.8767 67.6924C66.4728 67.4463 66.8184 67.001 66.8423 66.4736C66.8542 65.665 66.3059 65.1494 64.8277 64.5752C62.2053 63.5674 61.0371 62.5596 60.7271 61.0362C60.2622 58.8448 61.8238 56.8409 64.3986 56.3019C65.4357 56.0909 67.4264 56.1729 68.4992 56.4659ZM40.9632 58.0362C41.3923 58.962 41.9049 60.0518 42.1075 60.4737L42.4532 61.2354L42.7632 60.5557C42.93 60.1807 43.0731 59.8526 43.0731 59.8174C43.0731 59.7823 43.4307 58.9971 43.8598 58.0596L44.6466 56.3722H46.4823H48.318L48.1512 56.63C47.6028 57.5089 44.3843 63.0635 44.3843 63.1573C44.3843 63.2158 45.2903 64.8096 46.4108 66.6963C47.5194 68.5947 48.4373 70.1767 48.4373 70.2236C48.4373 70.2822 47.6386 70.3173 46.6492 70.3173H44.8611L43.5618 67.7627C42.2983 65.29 42.2506 65.2315 42.1314 65.5713C42.0599 65.7705 41.5473 66.8955 40.987 68.0908L39.9857 70.2587L38.1977 70.2939C37.2083 70.3056 36.3977 70.2822 36.3977 70.2353C36.3977 70.1767 37.2917 68.6064 38.3765 66.7432C39.4731 64.8682 40.3552 63.2862 40.3552 63.2276C40.3552 63.1573 39.497 61.6104 38.4361 59.7823C37.3871 57.9542 36.5169 56.4425 36.5169 56.419C36.5169 56.3956 37.3394 56.3722 38.3407 56.3722H40.1645L40.9632 58.0362ZM53.4438 61.9971V67.6221H56.2451H59.0464V68.9697V70.3173H54.6358H50.2253V63.3448V56.3722H51.8346H53.4438V61.9971ZM75.6514 57.5089C75.9494 58.1417 76.4739 59.2315 76.8077 59.9463L77.4156 61.2354L78.0474 59.7706C78.3931 58.962 78.8818 57.8722 79.1322 57.3331L79.5852 56.3722H81.4209C82.4341 56.3722 83.2328 56.4073 83.2089 56.4542C82.6606 57.3214 79.311 63.0869 79.311 63.1573C79.311 63.2041 80.2289 64.7861 81.3374 66.6728C82.458 68.5595 83.3639 70.1533 83.3639 70.2119C83.3639 70.2705 82.5652 70.3173 81.5759 70.3173H79.7878L78.4885 67.7627C77.4752 65.7705 77.1653 65.2666 77.0938 65.4541C76.9984 65.7119 75.8541 68.2666 75.27 69.5205L74.9124 70.3173H73.1005C71.6104 70.3173 71.3124 70.2939 71.3601 70.1533C71.3959 70.0595 72.3018 68.4892 73.3627 66.6728C74.4236 64.8447 75.2938 63.2862 75.2938 63.2276C75.2938 63.1573 74.4832 61.7159 73.5058 60.0049C72.5164 58.294 71.6581 56.7823 71.5747 56.63L71.4316 56.3722H73.2674H75.1031L75.6514 57.5089ZM79.7878 81.3328V86.9578H60H40.2122V81.3328V75.7079H60H79.7878V81.3328Z" fill="#676879"/>
</svg>
