<svg width="30" height="30" viewBox="0 0 30 30" fill="none" xmlns="http://www.w3.org/2000/svg">
<path d="M12.5 23.3333H10.8333C7.49999 23.3333 6.66666 22.5 6.66666 19.1667V10.8333C6.66666 7.50001 7.49999 6.66667 10.8333 6.66667H12.0833C13.3333 6.66667 13.6083 7.03335 14.0833 7.66668L15.3333 9.33335C15.65 9.75002 15.8333 10 16.6667 10H19.1667C22.5 10 23.3333 10.8333 23.3333 14.1667V15.8333" stroke="#fff" stroke-width="1.5" stroke-miterlimit="10" stroke-linecap="round" stroke-linejoin="round"/>
<path d="M18.0917 23.75C20.2778 23.75 22.05 21.9778 22.05 19.7917C22.05 17.6055 20.2778 15.8333 18.0917 15.8333C15.9055 15.8333 14.1333 17.6055 14.1333 19.7917C14.1333 21.9778 15.9055 23.75 18.0917 23.75Z" stroke="#fff" stroke-width="1.5" stroke-linecap="round" stroke-linejoin="round"/>
<path d="M22.4667 24.1667L21.6333 23.3333" stroke="#fff" stroke-width="1.5" stroke-linecap="round" stroke-linejoin="round"/>
</svg>
